<?xml version="1.0" standalone="no"?>
<!DOCTYPE svg PUBLIC "-//W3C//DTD SVG 20010904//EN"
 "http://www.w3.org/TR/2001/REC-SVG-20010904/DTD/svg10.dtd">
<svg version="1.0" xmlns="http://www.w3.org/2000/svg"
 width="1200.000000pt" height="600.000000pt" viewBox="0 0 1200.000000 600.000000"
 preserveAspectRatio="xMidYMid meet">
<metadata>
Created by potrace 1.16, written by Peter Selinger 2001-2019
</metadata>
<g transform="translate(0.000000,600.000000) scale(0.100000,-0.100000)"
fill="#000000" stroke="none">
<path d="M7635 4115 c-55 -12 -169 -37 -252 -55 l-153 -33 0 -31 c1 -27 7 -34
52 -56 29 -14 61 -38 73 -53 20 -28 20 -40 23 -895 2 -602 -1 -883 -9 -920
-11 -56 -54 -116 -90 -127 -13 -4 -19 -15 -19 -36 l0 -29 315 0 315 0 0 28 c0
19 -8 32 -29 44 -16 9 -37 28 -47 43 -42 64 -44 103 -44 1148 0 943 -1 997
-17 996 -10 -1 -63 -11 -118 -24z"/>
<path d="M2427 4013 c-4 -3 -7 -19 -7 -35 0 -22 5 -28 21 -28 34 0 97 -40 124
-80 14 -20 35 -63 48 -96 l22 -59 0 -770 c0 -725 -1 -773 -19 -825 -29 -88
-63 -138 -106 -160 -22 -11 -46 -20 -55 -20 -10 0 -15 -10 -15 -30 l0 -30 500
0 500 0 0 29 c0 27 -2 28 -58 34 -160 17 -241 82 -278 222 -10 36 -14 129 -14
331 l0 281 203 6 c221 7 362 25 495 63 290 84 432 266 432 554 0 157 -44 280
-136 379 -136 147 -342 211 -744 231 -222 11 -903 13 -913 3z m1042 -96 c90
-32 148 -84 185 -166 74 -166 75 -537 1 -699 -38 -82 -66 -115 -132 -150 -73
-38 -153 -52 -310 -52 l-123 0 0 551 0 552 153 -5 c130 -4 163 -9 226 -31z"/>
<path d="M4693 3286 c-128 -34 -212 -83 -309 -181 -141 -141 -204 -304 -204
-525 0 -126 20 -221 68 -324 93 -196 262 -339 462 -391 143 -37 375 -3 516 76
78 44 181 149 222 225 39 75 40 92 6 105 -24 9 -31 5 -71 -37 -97 -100 -299
-150 -450 -110 -123 33 -227 112 -281 213 -30 58 -72 196 -72 240 l0 23 474 0
c264 0 477 4 480 9 10 16 -14 213 -35 290 -75 271 -255 397 -579 407 -119 4
-146 1 -227 -20z m231 -47 c60 -16 126 -90 164 -180 33 -80 62 -235 62 -334
l0 -55 -286 0 -287 0 6 83 c13 174 90 374 171 443 58 50 104 62 170 43z"/>
<path d="M6240 3294 c-92 -24 -197 -83 -266 -149 -65 -63 -114 -147 -114 -195
0 -48 22 -104 54 -136 119 -119 329 -8 301 158 -9 52 -63 112 -118 131 l-42
14 37 36 c73 70 201 96 277 58 114 -58 161 -184 161 -429 l0 -121 -37 -10
c-21 -6 -69 -17 -108 -26 -38 -9 -133 -34 -210 -56 -326 -93 -419 -183 -419
-404 0 -81 4 -97 29 -144 40 -72 94 -114 190 -146 70 -24 91 -27 170 -22 151
8 283 72 361 174 l32 42 16 -39 c23 -58 84 -120 146 -149 47 -22 69 -25 150
-25 80 -1 105 4 157 26 77 33 125 70 163 127 37 54 37 65 4 80 -23 10 -29 9
-50 -14 -18 -19 -33 -25 -67 -25 -39 0 -49 5 -76 35 -16 19 -35 52 -40 72 -6
21 -12 186 -14 368 -3 273 -7 343 -22 405 -49 207 -145 315 -320 360 -94 24
-262 26 -345 4z m290 -904 c0 -221 -2 -230 -62 -286 -47 -44 -69 -54 -127 -54
-94 0 -152 41 -176 124 -19 63 -19 90 0 154 20 67 79 139 146 179 51 31 179
82 207 83 9 0 12 -47 12 -200z"/>
<path d="M8140 3251 c0 -27 3 -29 52 -34 138 -17 143 -116 15 -287 -41 -54
-331 -378 -369 -412 -12 -10 -18 -25 -14 -33 16 -43 318 -477 362 -522 77 -78
103 -83 416 -83 l258 0 0 29 c0 27 -3 29 -47 36 -70 10 -165 59 -209 107 -22
24 -117 153 -213 288 -96 135 -196 274 -222 310 l-47 64 38 46 c69 81 214 219
295 280 111 83 239 145 348 166 85 17 87 18 87 46 l0 28 -375 0 -375 0 0 -29z"/>
<path d="M9263 2381 c-119 -30 -204 -138 -204 -260 -1 -72 18 -117 71 -175
153 -166 429 -69 447 157 4 50 1 73 -17 115 -24 56 -92 125 -143 147 -44 18
-115 25 -154 16z"/>
</g>
</svg>
